<svg xmlns="http://www.w3.org/2000/svg" xmlns:xlink="http://www.w3.org/1999/xlink" width="500" zoomAndPan="magnify" viewBox="0 0 375 374.999991" height="500" preserveAspectRatio="xMidYMid meet" version="1.0"><defs><g/></defs><rect x="-37.5" width="450" fill="#ffffff" y="-37.499999" height="449.999989" fill-opacity="1"/><rect x="-37.5" width="450" fill="#c1ff72" y="-37.499999" height="449.999989" fill-opacity="1"/><g fill="#5e17eb" fill-opacity="1"><g transform="translate(96.572422, 210.772028)"><g><path d="M 71.921875 0 L 4.515625 0 L 4.515625 -1.5 C 9.847656 -1.5 14.320312 -2.40625 17.9375 -4.21875 C 21.5625 -6.03125 24.804688 -8.894531 27.671875 -12.8125 C 30.535156 -16.738281 33.375 -21.914062 36.1875 -28.34375 L 84.59375 -139.328125 C 83.082031 -142.742188 81.847656 -145.503906 80.890625 -147.609375 C 79.941406 -149.722656 79.46875 -150.78125 79.46875 -150.78125 L 92.28125 -150.78125 L 145.65625 -28.34375 C 148.46875 -21.914062 151.101562 -16.738281 153.5625 -12.8125 C 156.03125 -8.894531 159.070312 -6.03125 162.6875 -4.21875 C 166.3125 -2.40625 171.1875 -1.5 177.3125 -1.5 L 177.3125 0 L 119.421875 0 L 119.421875 -1.5 C 126.148438 -1.5 131.019531 -2.078125 134.03125 -3.234375 C 137.050781 -4.390625 138.710938 -6.222656 139.015625 -8.734375 C 139.316406 -11.253906 138.710938 -14.472656 137.203125 -18.390625 C 135.898438 -21.804688 134.492188 -25.472656 132.984375 -29.390625 C 131.484375 -33.316406 129.875 -37.34375 128.15625 -41.46875 L 49 -41.46875 C 47.695312 -36.84375 46.617188 -32.644531 45.765625 -28.875 C 44.910156 -25.101562 44.484375 -22.007812 44.484375 -19.59375 C 44.484375 -12.363281 46.84375 -7.566406 51.5625 -5.203125 C 56.289062 -2.835938 63.078125 -1.65625 71.921875 -1.65625 Z M 49.75 -43.71875 L 127.265625 -43.71875 C 124.140625 -51.257812 120.816406 -59.023438 117.296875 -67.015625 C 113.785156 -75.015625 110.320312 -82.804688 106.90625 -90.390625 C 103.488281 -97.984375 100.320312 -104.96875 97.40625 -111.34375 C 94.488281 -117.726562 92.023438 -123.109375 90.015625 -127.484375 C 88.003906 -131.859375 86.644531 -134.800781 85.9375 -136.3125 C 84.53125 -132.988281 82.695312 -128.640625 80.4375 -123.265625 C 78.175781 -117.890625 75.660156 -111.90625 72.890625 -105.3125 C 70.128906 -98.726562 67.34375 -91.84375 64.53125 -84.65625 C 61.71875 -77.46875 59.03125 -70.378906 56.46875 -63.390625 C 53.90625 -56.410156 51.664062 -49.851562 49.75 -43.71875 Z M 49.75 -43.71875 "/></g></g></g><g fill="#5e17eb" fill-opacity="1"><g transform="translate(148.090168, 205.17203)"><g><path d="M 2.6875 0.40625 C 2.238281 0.40625 1.835938 0.28125 1.484375 0.03125 C 1.128906 -0.207031 0.875 -0.519531 0.71875 -0.90625 L 1.953125 -1.40625 C 2.046875 -1.238281 2.144531 -1.113281 2.25 -1.03125 C 2.363281 -0.957031 2.507812 -0.921875 2.6875 -0.921875 C 3.03125 -0.921875 3.257812 -1.097656 3.375 -1.453125 L 6.484375 -16.25 L 7.890625 -16.25 L 12.84375 -2.6875 L 13.109375 -1.75 L 13.375 -2.6875 L 18.375 -16.25 L 19.8125 -16.25 L 23.125 0 L 21.703125 0 L 19.03125 -13.375 L 18.875 -14.28125 L 18.625 -13.34375 L 13.796875 0 L 12.390625 0 L 7.59375 -13.328125 L 7.34375 -14.28125 L 7.203125 -13.328125 L 4.703125 -1.28125 C 4.609375 -0.800781 4.375 -0.398438 4 -0.078125 C 3.625 0.242188 3.1875 0.40625 2.6875 0.40625 Z M 2.6875 0.40625 "/></g></g></g><g fill="#5e17eb" fill-opacity="1"><g transform="translate(172.258867, 205.17203)"><g><path d="M 3.5625 -14.921875 C 3.25 -14.921875 3.015625 -14.898438 2.859375 -14.859375 C 2.710938 -14.816406 2.582031 -14.738281 2.46875 -14.625 C 2.375 -14.53125 2.289062 -14.398438 2.21875 -14.234375 C 2.144531 -14.066406 2.109375 -13.914062 2.109375 -13.78125 L 0.8125 -13.796875 C 0.84375 -14.546875 1.078125 -15.140625 1.515625 -15.578125 C 1.753906 -15.796875 2.035156 -15.957031 2.359375 -16.0625 C 2.679688 -16.164062 3.09375 -16.226562 3.59375 -16.25 L 13.96875 -16.25 L 13.96875 -14.921875 L 4.984375 -14.921875 L 4.984375 -9.265625 L 11.109375 -9.265625 L 11.109375 -7.9375 L 4.984375 -7.9375 L 4.984375 -1.328125 L 13.96875 -1.328125 L 13.96875 0 L 3.5625 0 Z M 3.5625 -14.921875 "/></g></g></g><g fill="#5e17eb" fill-opacity="1"><g transform="translate(187.310885, 205.17203)"><g><path d="M 9.546875 0.40625 C 8.015625 0.40625 6.625 0.046875 5.375 -0.671875 C 4.132812 -1.390625 3.15625 -2.378906 2.4375 -3.640625 C 1.71875 -4.898438 1.359375 -6.300781 1.359375 -7.84375 L 1.359375 -8.28125 C 1.359375 -9.832031 1.710938 -11.242188 2.421875 -12.515625 C 3.128906 -13.796875 4.101562 -14.800781 5.34375 -15.53125 C 6.582031 -16.257812 7.953125 -16.625 9.453125 -16.625 C 10.972656 -16.625 12.347656 -16.257812 13.578125 -15.53125 C 14.816406 -14.800781 15.789062 -13.796875 16.5 -12.515625 C 17.21875 -11.242188 17.578125 -9.832031 17.578125 -8.28125 L 17.578125 -7.84375 C 17.578125 -6.269531 17.226562 -4.859375 16.53125 -3.609375 C 15.832031 -2.359375 14.875 -1.375 13.65625 -0.65625 C 12.4375 0.0507812 11.066406 0.40625 9.546875 0.40625 Z M 9.46875 -0.921875 C 10.726562 -0.921875 11.863281 -1.222656 12.875 -1.828125 C 13.882812 -2.429688 14.679688 -3.257812 15.265625 -4.3125 C 15.859375 -5.363281 16.15625 -6.539062 16.15625 -7.84375 L 16.15625 -8.28125 C 16.15625 -9.601562 15.859375 -10.796875 15.265625 -11.859375 C 14.671875 -12.929688 13.863281 -13.769531 12.84375 -14.375 C 11.820312 -14.988281 10.679688 -15.296875 9.421875 -15.296875 C 8.191406 -15.296875 7.066406 -14.984375 6.046875 -14.359375 C 5.035156 -13.742188 4.238281 -12.898438 3.65625 -11.828125 C 3.070312 -10.765625 2.78125 -9.582031 2.78125 -8.28125 L 2.78125 -7.84375 C 2.78125 -6.539062 3.070312 -5.363281 3.65625 -4.3125 C 4.238281 -3.257812 5.039062 -2.429688 6.0625 -1.828125 C 7.082031 -1.222656 8.21875 -0.921875 9.46875 -0.921875 Z M 9.46875 -0.921875 "/></g></g></g><g fill="#5e17eb" fill-opacity="1"><g transform="translate(206.256498, 205.17203)"><g><path d="M 3.5625 -14.921875 C 3.25 -14.921875 3.015625 -14.898438 2.859375 -14.859375 C 2.710938 -14.816406 2.582031 -14.738281 2.46875 -14.625 C 2.375 -14.53125 2.289062 -14.398438 2.21875 -14.234375 C 2.144531 -14.066406 2.109375 -13.914062 2.109375 -13.78125 L 0.8125 -13.796875 C 0.84375 -14.546875 1.078125 -15.140625 1.515625 -15.578125 C 1.753906 -15.796875 2.035156 -15.957031 2.359375 -16.0625 C 2.679688 -16.164062 3.09375 -16.226562 3.59375 -16.25 L 8.6875 -16.25 C 10.113281 -16.25 11.226562 -15.78125 12.03125 -14.84375 C 12.84375 -13.90625 13.25 -12.691406 13.25 -11.203125 C 13.25 -10.085938 13.007812 -9.144531 12.53125 -8.375 C 12.0625 -7.601562 11.429688 -7.03125 10.640625 -6.65625 C 9.847656 -6.289062 8.96875 -6.109375 8 -6.109375 C 7.59375 -6.109375 7.007812 -6.144531 6.25 -6.21875 L 6.25 -7.5 C 6.988281 -7.457031 7.535156 -7.4375 7.890625 -7.4375 C 10.515625 -7.4375 11.828125 -8.6875 11.828125 -11.1875 C 11.828125 -12.414062 11.515625 -13.34375 10.890625 -13.96875 C 10.273438 -14.601562 9.429688 -14.921875 8.359375 -14.921875 L 4.984375 -14.921875 L 4.984375 0.03125 L 3.5625 0.03125 Z M 3.5625 -14.921875 "/></g></g></g><g fill="#5e17eb" fill-opacity="1"><g transform="translate(220.667512, 205.17203)"><g><path d="M 2.375 -16.25 L 3.828125 -16.25 L 3.828125 0 L 2.375 0 Z M 2.375 -16.25 "/></g></g></g></svg>