<svg xmlns="http://www.w3.org/2000/svg" xmlns:xlink="http://www.w3.org/1999/xlink" width="500" zoomAndPan="magnify" viewBox="0 0 375 374.999991" height="500" preserveAspectRatio="xMidYMid meet" version="1.0"><defs><g/></defs><rect x="-37.5" width="450" fill="#ffffff" y="-37.499999" height="449.999989" fill-opacity="1"/><rect x="-37.5" width="450" fill="#ffffff" y="-37.499999" height="449.999989" fill-opacity="1"/><path fill="#ffffff" d="M -6.664062 -35.808594 L 365.726562 -35.808594 C 398.484375 -35.808594 429.898438 -22.796875 453.0625 0.363281 C 476.222656 23.527344 489.234375 54.941406 489.234375 87.699219 L 489.234375 334.714844 C 489.234375 367.472656 476.222656 398.886719 453.0625 422.050781 C 429.898438 445.210938 398.484375 458.222656 365.726562 458.222656 L -6.664062 458.222656 C -74.875 458.222656 -130.171875 402.925781 -130.171875 334.714844 L -130.171875 87.699219 C -130.171875 19.488281 -74.875 -35.808594 -6.664062 -35.808594 Z M -6.664062 -35.808594 " fill-opacity="1" fill-rule="nonzero"/><g fill="#5e17eb" fill-opacity="1"><g transform="translate(-7.036567, 309.445226)"><g><path d="M 147.28125 0 L 9.265625 0 L 9.265625 -3.09375 C 20.171875 -3.09375 29.328125 -4.941406 36.734375 -8.640625 C 44.148438 -12.347656 50.789062 -18.210938 56.65625 -26.234375 C 62.53125 -34.265625 68.347656 -44.867188 74.109375 -58.046875 L 173.21875 -285.3125 C 170.132812 -292.3125 167.613281 -297.972656 165.65625 -302.296875 C 163.707031 -306.617188 162.734375 -308.78125 162.734375 -308.78125 L 188.96875 -308.78125 L 298.28125 -58.046875 C 304.039062 -44.867188 309.441406 -34.265625 314.484375 -26.234375 C 319.535156 -18.210938 325.765625 -12.347656 333.171875 -8.640625 C 340.585938 -4.941406 350.570312 -3.09375 363.125 -3.09375 L 363.125 0 L 244.546875 0 L 244.546875 -3.09375 C 258.347656 -3.09375 268.332031 -4.273438 274.5 -6.640625 C 280.675781 -9.003906 284.070312 -12.757812 284.6875 -17.90625 C 285.3125 -23.050781 284.078125 -29.640625 280.984375 -37.671875 C 278.316406 -44.671875 275.4375 -52.179688 272.34375 -60.203125 C 269.257812 -68.234375 265.96875 -76.472656 262.46875 -84.921875 L 100.359375 -84.921875 C 97.679688 -75.441406 95.46875 -66.84375 93.71875 -59.125 C 91.96875 -51.40625 91.09375 -45.078125 91.09375 -40.140625 C 91.09375 -25.316406 95.925781 -15.484375 105.59375 -10.640625 C 115.269531 -5.804688 129.164062 -3.390625 147.28125 -3.390625 Z M 101.890625 -89.546875 L 260.609375 -89.546875 C 254.234375 -104.984375 247.441406 -120.882812 240.234375 -137.25 C 233.023438 -153.613281 225.921875 -169.566406 218.921875 -185.109375 C 211.921875 -200.648438 205.4375 -214.957031 199.46875 -228.03125 C 193.5 -241.101562 188.457031 -252.113281 184.34375 -261.0625 C 180.226562 -270.019531 177.445312 -276.046875 176 -279.140625 C 173.125 -272.347656 169.367188 -263.441406 164.734375 -252.421875 C 160.097656 -241.410156 154.945312 -229.160156 149.28125 -215.671875 C 143.625 -202.191406 137.914062 -188.09375 132.15625 -173.375 C 126.394531 -158.65625 120.890625 -144.140625 115.640625 -129.828125 C 110.390625 -115.523438 105.804688 -102.097656 101.890625 -89.546875 Z M 101.890625 -89.546875 "/></g></g></g><g fill="#5e17eb" fill-opacity="0.4"><g transform="translate(81.600901, 295.660073)"><g><path d="M 6.984375 0.6875 C 5.734375 0.6875 4.597656 0.289062 3.578125 -0.5 C 2.554688 -1.300781 1.894531 -2.25 1.59375 -3.34375 L 5.5625 -5 C 5.863281 -4.425781 6.085938 -4.0625 6.234375 -3.90625 C 6.390625 -3.757812 6.640625 -3.6875 6.984375 -3.6875 C 7.242188 -3.6875 7.441406 -3.742188 7.578125 -3.859375 C 7.710938 -3.972656 7.832031 -4.160156 7.9375 -4.421875 L 15.265625 -38.9375 L 19.515625 -38.9375 L 30.421875 -9.078125 L 31.15625 -6.46875 L 31.890625 -9.078125 L 42.90625 -38.9375 L 47.21875 -38.9375 L 55.21875 0.0625 L 50.5625 0.0625 L 44.4375 -30.46875 L 44.375 -31.375 L 44.203125 -30.46875 L 33.203125 0.0625 L 29.109375 0.0625 L 18.28125 -30.140625 L 18.109375 -31.375 L 17.9375 -30.140625 L 12.375 -3.75 C 12.101562 -2.53125 11.457031 -1.484375 10.4375 -0.609375 C 9.414062 0.253906 8.265625 0.6875 6.984375 0.6875 Z M 6.984375 0.6875 "/></g></g></g><g fill="#5e17eb" fill-opacity="0.4"><g transform="translate(139.194159, 295.660073)"><g><path d="M 8.859375 -34.5 C 7.867188 -34.5 7.1875 -34.332031 6.8125 -34 C 6.394531 -33.65625 6.148438 -33.03125 6.078125 -32.125 L 1.8125 -32.171875 C 1.8125 -34.441406 2.515625 -36.179688 3.921875 -37.390625 C 5.054688 -38.421875 6.71875 -38.9375 8.90625 -38.9375 L 34.28125 -38.9375 L 34.28125 -34.625 L 13.5 -34.625 L 13.5 -22.75 L 27.6875 -22.75 L 27.6875 -18.4375 L 13.5 -18.4375 L 13.5 -4.25 L 34.28125 -4.25 L 34.28125 0.0625 L 8.859375 0.0625 Z M 8.859375 -34.5 "/></g></g></g><g fill="#5e17eb" fill-opacity="0.4"><g transform="translate(176.133282, 295.660073)"><g><path d="M 22.75 1.25 C 19.007812 1.207031 15.65625 0.328125 12.6875 -1.390625 C 9.71875 -3.109375 7.390625 -5.453125 5.703125 -8.421875 C 4.015625 -11.390625 3.171875 -14.75 3.171875 -18.5 L 3.171875 -20.140625 C 3.171875 -23.734375 4.03125 -27.035156 5.75 -30.046875 C 7.476562 -33.054688 9.828125 -35.441406 12.796875 -37.203125 C 15.765625 -38.960938 19.007812 -39.84375 22.53125 -39.84375 C 26.082031 -39.84375 29.332031 -38.960938 32.28125 -37.203125 C 35.238281 -35.441406 37.585938 -33.054688 39.328125 -30.046875 C 41.066406 -27.035156 41.9375 -23.734375 41.9375 -20.140625 L 41.9375 -18.5 C 41.9375 -14.75 41.09375 -11.359375 39.40625 -8.328125 C 37.726562 -5.304688 35.429688 -2.941406 32.515625 -1.234375 C 29.597656 0.460938 26.34375 1.289062 22.75 1.25 Z M 22.59375 -3.0625 C 25.351562 -3.0625 27.847656 -3.734375 30.078125 -5.078125 C 32.304688 -6.421875 34.0625 -8.265625 35.34375 -10.609375 C 36.632812 -12.953125 37.28125 -15.582031 37.28125 -18.5 L 37.28125 -20.140625 C 37.28125 -22.898438 36.617188 -25.460938 35.296875 -27.828125 C 33.972656 -30.191406 32.1875 -32.066406 29.9375 -33.453125 C 27.6875 -34.835938 25.195312 -35.53125 22.46875 -35.53125 C 19.78125 -35.53125 17.320312 -34.835938 15.09375 -33.453125 C 12.863281 -32.066406 11.09375 -30.191406 9.78125 -27.828125 C 8.476562 -25.460938 7.828125 -22.898438 7.828125 -20.140625 L 7.828125 -18.5 C 7.828125 -15.582031 8.46875 -12.953125 9.75 -10.609375 C 11.039062 -8.265625 12.8125 -6.421875 15.0625 -5.078125 C 17.3125 -3.734375 19.820312 -3.0625 22.59375 -3.0625 Z M 22.59375 -3.0625 "/></g></g></g><g fill="#5e17eb" fill-opacity="0.4"><g transform="translate(221.243268, 295.660073)"><g><path d="M 8.859375 -34.5 C 7.867188 -34.5 7.1875 -34.332031 6.8125 -34 C 6.394531 -33.65625 6.148438 -33.03125 6.078125 -32.125 L 1.8125 -32.171875 C 1.8125 -34.441406 2.515625 -36.179688 3.921875 -37.390625 C 5.054688 -38.421875 6.71875 -38.9375 8.90625 -38.9375 L 21.453125 -38.9375 C 23.753906 -38.9375 25.753906 -38.394531 27.453125 -37.3125 C 29.160156 -36.238281 30.46875 -34.765625 31.375 -32.890625 C 32.289062 -31.015625 32.75 -28.921875 32.75 -26.609375 C 32.75 -22.492188 31.554688 -19.382812 29.171875 -17.28125 C 26.785156 -15.175781 23.664062 -14.125 19.8125 -14.125 C 18.476562 -14.125 17.054688 -14.316406 15.546875 -14.703125 L 15.546875 -18.84375 C 17.140625 -18.570312 18.484375 -18.4375 19.578125 -18.4375 C 25.253906 -18.4375 28.09375 -21.144531 28.09375 -26.5625 C 28.09375 -29.25 27.429688 -31.265625 26.109375 -32.609375 C 24.785156 -33.953125 22.96875 -34.625 20.65625 -34.625 L 13.5 -34.625 L 13.5 0.0625 L 8.859375 0.0625 Z M 8.859375 -34.5 "/></g></g></g><g fill="#5e17eb" fill-opacity="0.4"><g transform="translate(256.593619, 295.660073)"><g><path d="M 5.5 -38.9375 L 10.15625 -38.9375 L 10.15625 0.0625 L 5.5 0.0625 Z M 5.5 -38.9375 "/></g></g></g><g fill="#5e17eb" fill-opacity="1"><g transform="translate(79.092575, 293.151749)"><g><path d="M 6.984375 0.6875 C 5.734375 0.6875 4.597656 0.289062 3.578125 -0.5 C 2.554688 -1.300781 1.894531 -2.25 1.59375 -3.34375 L 5.5625 -5 C 5.863281 -4.425781 6.085938 -4.0625 6.234375 -3.90625 C 6.390625 -3.757812 6.640625 -3.6875 6.984375 -3.6875 C 7.242188 -3.6875 7.441406 -3.742188 7.578125 -3.859375 C 7.710938 -3.972656 7.832031 -4.160156 7.9375 -4.421875 L 15.265625 -38.9375 L 19.515625 -38.9375 L 30.421875 -9.078125 L 31.15625 -6.46875 L 31.890625 -9.078125 L 42.90625 -38.9375 L 47.21875 -38.9375 L 55.21875 0.0625 L 50.5625 0.0625 L 44.4375 -30.46875 L 44.375 -31.375 L 44.203125 -30.46875 L 33.203125 0.0625 L 29.109375 0.0625 L 18.28125 -30.140625 L 18.109375 -31.375 L 17.9375 -30.140625 L 12.375 -3.75 C 12.101562 -2.53125 11.457031 -1.484375 10.4375 -0.609375 C 9.414062 0.253906 8.265625 0.6875 6.984375 0.6875 Z M 6.984375 0.6875 "/></g></g></g><g fill="#5e17eb" fill-opacity="1"><g transform="translate(136.685833, 293.151749)"><g><path d="M 8.859375 -34.5 C 7.867188 -34.5 7.1875 -34.332031 6.8125 -34 C 6.394531 -33.65625 6.148438 -33.03125 6.078125 -32.125 L 1.8125 -32.171875 C 1.8125 -34.441406 2.515625 -36.179688 3.921875 -37.390625 C 5.054688 -38.421875 6.71875 -38.9375 8.90625 -38.9375 L 34.28125 -38.9375 L 34.28125 -34.625 L 13.5 -34.625 L 13.5 -22.75 L 27.6875 -22.75 L 27.6875 -18.4375 L 13.5 -18.4375 L 13.5 -4.25 L 34.28125 -4.25 L 34.28125 0.0625 L 8.859375 0.0625 Z M 8.859375 -34.5 "/></g></g></g><g fill="#5e17eb" fill-opacity="1"><g transform="translate(173.624956, 293.151749)"><g><path d="M 22.75 1.25 C 19.007812 1.207031 15.65625 0.328125 12.6875 -1.390625 C 9.71875 -3.109375 7.390625 -5.453125 5.703125 -8.421875 C 4.015625 -11.390625 3.171875 -14.75 3.171875 -18.5 L 3.171875 -20.140625 C 3.171875 -23.734375 4.03125 -27.035156 5.75 -30.046875 C 7.476562 -33.054688 9.828125 -35.441406 12.796875 -37.203125 C 15.765625 -38.960938 19.007812 -39.84375 22.53125 -39.84375 C 26.082031 -39.84375 29.332031 -38.960938 32.28125 -37.203125 C 35.238281 -35.441406 37.585938 -33.054688 39.328125 -30.046875 C 41.066406 -27.035156 41.9375 -23.734375 41.9375 -20.140625 L 41.9375 -18.5 C 41.9375 -14.75 41.09375 -11.359375 39.40625 -8.328125 C 37.726562 -5.304688 35.429688 -2.941406 32.515625 -1.234375 C 29.597656 0.460938 26.34375 1.289062 22.75 1.25 Z M 22.59375 -3.0625 C 25.351562 -3.0625 27.847656 -3.734375 30.078125 -5.078125 C 32.304688 -6.421875 34.0625 -8.265625 35.34375 -10.609375 C 36.632812 -12.953125 37.28125 -15.582031 37.28125 -18.5 L 37.28125 -20.140625 C 37.28125 -22.898438 36.617188 -25.460938 35.296875 -27.828125 C 33.972656 -30.191406 32.1875 -32.066406 29.9375 -33.453125 C 27.6875 -34.835938 25.195312 -35.53125 22.46875 -35.53125 C 19.78125 -35.53125 17.320312 -34.835938 15.09375 -33.453125 C 12.863281 -32.066406 11.09375 -30.191406 9.78125 -27.828125 C 8.476562 -25.460938 7.828125 -22.898438 7.828125 -20.140625 L 7.828125 -18.5 C 7.828125 -15.582031 8.46875 -12.953125 9.75 -10.609375 C 11.039062 -8.265625 12.8125 -6.421875 15.0625 -5.078125 C 17.3125 -3.734375 19.820312 -3.0625 22.59375 -3.0625 Z M 22.59375 -3.0625 "/></g></g></g><g fill="#5e17eb" fill-opacity="1"><g transform="translate(218.734942, 293.151749)"><g><path d="M 8.859375 -34.5 C 7.867188 -34.5 7.1875 -34.332031 6.8125 -34 C 6.394531 -33.65625 6.148438 -33.03125 6.078125 -32.125 L 1.8125 -32.171875 C 1.8125 -34.441406 2.515625 -36.179688 3.921875 -37.390625 C 5.054688 -38.421875 6.71875 -38.9375 8.90625 -38.9375 L 21.453125 -38.9375 C 23.753906 -38.9375 25.753906 -38.394531 27.453125 -37.3125 C 29.160156 -36.238281 30.46875 -34.765625 31.375 -32.890625 C 32.289062 -31.015625 32.75 -28.921875 32.75 -26.609375 C 32.75 -22.492188 31.554688 -19.382812 29.171875 -17.28125 C 26.785156 -15.175781 23.664062 -14.125 19.8125 -14.125 C 18.476562 -14.125 17.054688 -14.316406 15.546875 -14.703125 L 15.546875 -18.84375 C 17.140625 -18.570312 18.484375 -18.4375 19.578125 -18.4375 C 25.253906 -18.4375 28.09375 -21.144531 28.09375 -26.5625 C 28.09375 -29.25 27.429688 -31.265625 26.109375 -32.609375 C 24.785156 -33.953125 22.96875 -34.625 20.65625 -34.625 L 13.5 -34.625 L 13.5 0.0625 L 8.859375 0.0625 Z M 8.859375 -34.5 "/></g></g></g><g fill="#5e17eb" fill-opacity="1"><g transform="translate(254.085293, 293.151749)"><g><path d="M 5.5 -38.9375 L 10.15625 -38.9375 L 10.15625 0.0625 L 5.5 0.0625 Z M 5.5 -38.9375 "/></g></g></g></svg>